<svg width="48" height="53" viewBox="0 0 48 53" fill="none" xmlns="http://www.w3.org/2000/svg">
<g id="Group 8">
<path id="Stroke 2" fill-rule="evenodd" clip-rule="evenodd" d="M13.3008 44.814C13.4369 45.264 13.9623 45.463 14.3624 45.216L21.9989 40.5019L32.3215 52.7234C32.7297 53.2067 33.5181 52.9621 33.581 52.3327L35.5797 32.3451L47.433 27.4062C47.9843 27.1765 48.0287 26.4126 47.5077 26.1206L1.06768 0.0937686C0.505458 -0.221325 -0.154286 0.308681 0.0322262 0.925605L13.3008 44.814ZM14.4022 43.5085L1.91704 2.21142L45.5237 26.6504L34.6344 31.1876C34.3914 31.2889 34.2235 31.5153 34.1973 31.7773L32.3243 50.5074L22.6949 39.1065C22.4661 38.8356 22.0735 38.7729 21.7717 38.9592L14.4022 43.5085Z" fill="#D8D8D8"/>
<path id="Stroke 4" d="M35.211 31.5175L20.077 17.7388L1.01882 0.387329L0.416016 1.04942L19.4742 18.4008L34.6082 32.1796L35.211 31.5175Z" fill="#D8D8D8"/>
<path id="Stroke 6" d="M32.4357 52.376L33.3012 52.1467L28.7083 34.813L28.6217 34.6439L16.1468 19.4276L1.06838 0.439941L0.367188 0.996772L15.4499 19.9899L27.8676 35.1364L32.4357 52.376Z" fill="#D8D8D8"/>
</g>
</svg>
