<svg width="22" height="21" viewBox="0 0 22 21" fill="none" xmlns="http://www.w3.org/2000/svg">
<path id="Vector" d="M10.0833 11.375H0.916667C0.656944 11.375 0.439236 11.291 0.263542 11.1231C0.0878472 10.9552 0 10.7471 0 10.4988C0 10.2506 0.0878472 10.0429 0.263542 9.87573C0.439236 9.70858 0.656944 9.625 0.916667 9.625H10.0833V0.875C10.0833 0.627083 10.1713 0.419271 10.3472 0.251563C10.5232 0.0838542 10.7411 0 11.0012 0C11.2613 0 11.4789 0.0838542 11.654 0.251563C11.8291 0.419271 11.9167 0.627083 11.9167 0.875V9.625H21.0833C21.3431 9.625 21.5608 9.70897 21.7365 9.87691C21.9122 10.0448 22 10.2529 22 10.5012C22 10.7494 21.9122 10.9571 21.7365 11.1243C21.5608 11.2914 21.3431 11.375 21.0833 11.375H11.9167V20.125C11.9167 20.3729 11.8287 20.5807 11.6528 20.7484C11.4769 20.9161 11.2589 21 10.9988 21C10.7387 21 10.5211 20.9161 10.346 20.7484C10.1709 20.5807 10.0833 20.3729 10.0833 20.125V11.375Z" fill="#0453C8"/>
</svg>
